<?xml version="1.0" standalone="no"?>
<!DOCTYPE svg PUBLIC "-//W3C//DTD SVG 20010904//EN"
 "http://www.w3.org/TR/2001/REC-SVG-20010904/DTD/svg10.dtd">
<svg version="1.0" xmlns="http://www.w3.org/2000/svg"
 width="300.000000pt" height="300.000000pt" viewBox="0 0 300.000000 300.000000"
 preserveAspectRatio="xMidYMid meet">
<style type="text/css">
       .st0{fill:#515151;}
</style>
<g transform="translate(0.000000,300.000000) scale(0.100000,-0.100000)"
stroke="none">
<path class="st0" d="M806 2318 c-2 -7 -9 -71 -15 -143 -6 -71 -15 -177 -21 -234 -6 -57
-8 -106 -5 -110 4 -3 39 -7 80 -9 83 -5 79 -9 90 93 3 33 10 83 15 110 5 28
11 71 15 98 l6 47 220 0 219 0 0 -670 0 -670 -145 0 -145 0 0 -85 0 -85 385 0
386 0 -3 83 -3 82 -147 3 -148 3 0 669 0 670 219 0 220 0 6 -47 c4 -27 10 -70
15 -98 5 -27 12 -77 15 -110 11 -102 7 -98 90 -93 41 2 77 6 81 10 4 4 1 63
-6 130 -7 68 -17 177 -24 243 l-11 120 -693 3 c-549 2 -693 0 -696 -10z"/>
</g>
</svg>
